<svg width="31" height="36" viewBox="0 0 31 36" fill="none" xmlns="http://www.w3.org/2000/svg">
<path d="M3.08264 0H16.3679C16.4188 0.0302067 16.4751 0.0154054 16.528 0.0138951C17.2002 -0.00604133 17.8718 0.0320191 18.541 0.0712877C18.9029 0.0924324 19.2677 0.156168 19.6301 0.211145C19.9294 0.256757 20.2287 0.303577 20.525 0.365501C20.8213 0.427424 21.1137 0.497202 21.4061 0.573927C21.7524 0.664547 22.0945 0.770874 22.435 0.875993C22.7756 0.981112 23.1117 1.10828 23.4466 1.23485C23.857 1.39041 24.2496 1.58404 24.6411 1.77857C24.9627 1.93515 25.2751 2.11034 25.5766 2.30326C25.9109 2.51984 26.2426 2.74035 26.558 2.98412C26.7789 3.15418 26.9869 3.34237 27.2045 3.51364C27.5492 3.7855 27.8288 4.11777 28.1355 4.42377C28.3241 4.61165 28.4839 4.83488 28.6545 5.04361C29.0044 5.47103 29.2983 5.93682 29.57 6.41408C29.7723 6.76528 29.9489 7.13095 30.0983 7.50817C30.1982 7.76462 30.3137 8.01534 30.3975 8.27814C30.4765 8.52523 30.5648 8.7693 30.6334 9.02031C30.7471 9.43596 30.8291 9.85825 30.9063 10.2811C30.9494 10.5171 30.9485 10.7596 30.9695 10.9992C30.9922 11.2583 30.9695 11.5196 30.9994 11.7785V13.6211C30.9602 13.8038 30.9859 13.9896 30.9749 14.1739C30.9602 14.4188 30.956 14.6665 30.9132 14.9064C30.8462 15.2843 30.7986 15.6673 30.6723 16.0337C30.6005 16.2412 30.5508 16.4566 30.4819 16.6656C30.3922 16.9417 30.2724 17.2069 30.1758 17.4797C30.0291 17.892 29.8235 18.2744 29.6128 18.6532C29.4234 18.9933 29.2537 19.348 29.0187 19.6588C28.7359 20.0325 28.4755 20.4224 28.164 20.7764C27.9467 21.0229 27.727 21.2712 27.4978 21.5014C27.2685 21.7316 27.0372 21.9826 26.7666 22.1829C26.608 22.3001 26.4673 22.4448 26.3102 22.5683C25.946 22.8547 25.5653 23.1175 25.1774 23.3697C24.7457 23.6458 24.297 23.8941 23.8342 24.1131C23.4004 24.3225 22.9528 24.5014 22.4946 24.6486C22.1639 24.755 21.8362 24.8716 21.5001 24.9595C21.2906 25.0144 21.0748 25.0582 20.8614 25.1032C20.1518 25.2543 19.4326 25.2639 18.7125 25.2639C18.6787 25.2639 18.6425 25.2525 18.612 25.2787H15.26C15.1343 25.241 15.0029 25.2567 14.8763 25.254C14.3974 25.244 13.9874 25.0522 13.6142 24.7737C13.053 24.355 12.637 23.8161 12.4033 23.1504C12.318 22.9072 12.2474 22.6517 12.2575 22.385C12.2695 22.0687 12.2414 21.7506 12.2794 21.4353C12.3201 21.0963 12.4365 20.7834 12.5838 20.4825C12.7293 20.1848 12.9238 19.9141 13.159 19.6821C13.4921 19.3537 13.8647 19.0855 14.3094 18.9209C14.6633 18.7857 15.0384 18.716 15.4168 18.7151C15.4566 18.7151 15.4967 18.7151 15.5365 18.7151C16.0501 18.7372 16.5592 18.6641 17.0665 18.6115C17.6601 18.5536 18.2458 18.4306 18.8131 18.2448C19.5335 18.0032 20.2117 17.6748 20.8135 17.193C21.2798 16.82 21.6743 16.3877 21.9715 15.8706C22.2588 15.3704 22.4802 14.8457 22.5904 14.2696C22.7005 13.6936 22.781 13.1218 22.7586 12.5379C22.7393 12.1079 22.6871 11.6801 22.6023 11.2583C22.5331 10.8881 22.4247 10.5265 22.2791 10.1796C22.1199 9.80599 21.931 9.44442 21.6805 9.12241C21.3724 8.72245 21.0048 8.37297 20.5908 8.08632C20.3233 7.90116 20.0521 7.72656 19.7597 7.59093C19.2183 7.33871 18.659 7.13783 18.0667 7.02969C17.7102 6.96354 17.3535 6.91068 16.9967 6.85208C16.511 6.77233 16.0258 6.77596 15.5389 6.77566C11.3998 6.77445 7.26057 6.77445 3.12125 6.77566C2.64239 6.77566 2.20364 6.64486 1.77237 6.44761C1.40904 6.28299 1.10107 6.04133 0.818546 5.76585C0.469579 5.42391 0.239428 5.00524 0.0724271 4.54761C0.0269357 4.42316 0.0613535 4.28663 0 4.16852V2.56757C0.0580614 2.46275 0.0263371 2.34253 0.0577621 2.23197C0.190346 1.77011 0.440848 1.38135 0.757791 1.02703C1.02799 0.72044 1.35509 0.470249 1.72059 0.290588C1.94536 0.18124 2.18059 0.09062 2.43499 0.0531637C2.65077 0.0202385 2.86775 0.0302067 3.08264 0Z" fill="#FF5E63"/>
<path d="M18.849 12.3847V13.6232C18.7892 13.7576 18.8191 13.9059 18.7847 14.0461C18.703 14.385 18.5297 14.6771 18.345 14.9638C18.0506 15.4218 17.6467 15.7977 17.1706 16.057C16.8112 16.2521 16.4223 16.3859 16.0196 16.453C15.6111 16.5243 15.2052 16.5013 14.7985 16.5022C12.8142 16.5073 10.83 16.5046 8.84571 16.5046C8.78585 16.5046 8.726 16.5025 8.66614 16.5046C8.52787 16.5131 8.49016 16.5499 8.48178 16.688C8.47699 16.7632 8.47998 16.839 8.47998 16.9142C8.47998 22.178 8.48058 27.4417 8.48178 32.7054C8.48178 33.469 8.20763 34.1251 7.76948 34.7256C7.3409 35.3134 6.76178 35.6886 6.0842 35.9157C5.92738 35.9683 5.75499 35.9622 5.59158 35.984C5.54309 35.9906 5.49192 35.9713 5.44553 35.9994H4.5791C4.46956 35.9692 4.35493 35.9692 4.24419 35.9622C3.89074 35.9384 3.58577 35.7846 3.28977 35.6152C2.82498 35.349 2.45507 34.9724 2.1477 34.5323C1.97771 34.2888 1.85679 34.0187 1.75145 33.7442C1.69997 33.6097 1.71763 33.4521 1.70595 33.305C1.70459 33.2746 1.69415 33.2453 1.67603 33.221V12.3847C1.72331 12.3228 1.70595 12.2488 1.70835 12.1805C1.72571 11.7353 1.94419 11.3755 2.18092 11.0221C2.55293 10.4666 3.05034 10.0637 3.65191 9.78968C3.89372 9.68282 4.15414 9.62542 4.41808 9.62082C4.46148 9.62082 4.50787 9.63562 4.54827 9.60632H15.9768C16.1166 9.64015 16.2614 9.62384 16.4024 9.65375C16.9378 9.76672 17.39 10.038 17.7926 10.3999C18.1414 10.715 18.4249 11.0968 18.6267 11.5232C18.7365 11.7525 18.8296 11.9914 18.8194 12.2558C18.8128 12.301 18.8234 12.347 18.849 12.3847Z" fill="#9192FF"/>
</svg>
